<svg xmlns="http://www.w3.org/2000/svg" viewBox="0 0 280 60" fill="none">
  <defs>
    <linearGradient id="logoGrad" x1="0%" y1="0%" x2="100%" y2="100%">
      <stop offset="0%" style="stop-color:#0D1B2A"/>
      <stop offset="100%" style="stop-color:#1B263B"/>
    </linearGradient>
  </defs>
  
  <!-- Book/Cap Icon -->
  <g transform="translate(5, 5)">
    <!-- Graduation Cap -->
    <path d="M25 8L5 18L25 28L45 18L25 8Z" fill="#F4D35E"/>
    <path d="M10 20V32C10 32 17 38 25 38C33 38 40 32 40 32V20L25 30L10 20Z" fill="#0D1B2A"/>
    <path d="M42 18V30" stroke="#F4D35E" stroke-width="2.5" stroke-linecap="round"/>
    <circle cx="42" cy="32" r="2.5" fill="#F4D35E"/>
    <!-- Book Pages -->
    <path d="M15 42H35C35 42 35 45 25 45C15 45 15 42 15 42Z" fill="#0D1B2A" opacity="0.8"/>
  </g>
  
  <!-- Text: Campus -->
  <text x="58" y="30" font-family="'Plus Jakarta Sans', 'Inter', sans-serif" font-size="22" font-weight="800" fill="url(#logoGrad)">Campus</text>
  
  <!-- Text: Pathway -->
  <text x="58" y="50" font-family="'Plus Jakarta Sans', 'Inter', sans-serif" font-size="18" font-weight="600" fill="#F4D35E">Pathway</text>
  
  <!-- Decorative line -->
  <rect x="148" y="18" width="3" height="30" rx="1.5" fill="#F4D35E"/>
  
  <!-- Tagline -->
  <text x="158" y="32" font-family="'Plus Jakarta Sans', 'Inter', sans-serif" font-size="9" font-weight="500" fill="#0D1B2A" opacity="0.7">YOUR FUTURE</text>
  <text x="158" y="44" font-family="'Plus Jakarta Sans', 'Inter', sans-serif" font-size="9" font-weight="600" fill="#0D1B2A">STARTS HERE</text>
</svg>
